<svg width="28" height="22" viewBox="0 0 28 22" fill="none" xmlns="http://www.w3.org/2000/svg">
<path id="Vector" d="M24.7345 0.247559H3.40116C1.9345 0.247559 0.74783 1.44756 0.74783 2.91423L0.734497 18.9142C0.734497 20.3809 1.9345 21.5809 3.40116 21.5809H24.7345C26.2012 21.5809 27.4012 20.3809 27.4012 18.9142V2.91423C27.4012 1.44756 26.2012 0.247559 24.7345 0.247559ZM23.4012 18.9142H4.7345C4.00116 18.9142 3.40116 18.3142 3.40116 17.5809V5.58089L12.6545 11.3676C13.5212 11.9142 14.6145 11.9142 15.4812 11.3676L24.7345 5.58089V17.5809C24.7345 18.3142 24.1345 18.9142 23.4012 18.9142ZM14.0678 9.58089L3.40116 2.91423H24.7345L14.0678 9.58089Z" fill="white"/>
</svg>
