<svg width="54" height="68" viewBox="0 0 54 68" fill="none" xmlns="http://www.w3.org/2000/svg">
<path d="M27 0.75C20.0738 0.758171 13.4335 3.51324 8.53589 8.41086C3.63827 13.3085 0.883199 19.9487 0.875028 26.875C0.866732 32.5352 2.71561 38.0417 6.13803 42.55C6.13803 42.55 6.85053 43.4881 6.9669 43.6235L27 67.25L47.0426 43.6116C47.1472 43.4858 47.862 42.55 47.862 42.55L47.8644 42.5429C51.2851 38.0366 53.1331 32.5326 53.125 26.875C53.1169 19.9487 50.3618 13.3085 45.4642 8.41086C40.5665 3.51324 33.9263 0.758171 27 0.75ZM27 36.375C25.1211 36.375 23.2844 35.8178 21.7221 34.774C20.1598 33.7301 18.9422 32.2464 18.2232 30.5105C17.5041 28.7746 17.316 26.8645 17.6826 25.0216C18.0491 23.1788 18.9539 21.4861 20.2825 20.1575C21.6111 18.8289 23.3039 17.9241 25.1467 17.5575C26.9895 17.191 28.8996 17.3791 30.6355 18.0981C32.3714 18.8172 33.8551 20.0348 34.899 21.5971C35.9429 23.1594 36.5 24.9961 36.5 26.875C36.4969 29.3936 35.495 31.8081 33.7141 33.589C31.9332 35.37 29.5186 36.3719 27 36.375Z" fill="#263a8a"/>
</svg>
