<svg width="69" height="69" viewBox="0 0 69 69" fill="none" xmlns="http://www.w3.org/2000/svg">
<path d="M3.48893 27.5013C11.5336 45.0305 25.8278 58.9237 43.5727 66.4606L46.4221 67.731C49.5774 69.1369 53.1275 69.3833 56.4466 68.4269C59.7658 67.4704 62.6411 65.3724 64.5658 62.5026L68.2909 56.9514C68.8738 56.0808 69.1098 55.0233 68.9524 53.9873C68.7949 52.9513 68.2555 52.0119 67.4403 51.354L54.8193 41.1656C54.3798 40.811 53.8731 40.5489 53.3298 40.3952C52.7866 40.2414 52.2178 40.1991 51.6578 40.2707C51.0978 40.3424 50.558 40.5266 50.0708 40.8122C49.5837 41.0978 49.1593 41.479 48.8231 41.9328L44.9178 47.2032C34.8931 42.2492 26.7788 34.1285 21.8296 24.0968L27.0925 20.1891C27.5461 19.8527 27.927 19.428 28.2125 18.9406C28.4979 18.4532 28.682 17.9131 28.7536 17.3527C28.8252 16.7923 28.7829 16.2232 28.6293 15.6796C28.4756 15.136 28.2137 14.6291 27.8593 14.1893L17.6771 1.56066C17.0196 0.744972 16.0807 0.205196 15.0453 0.0476608C14.01 -0.109874 12.9532 0.126253 12.0831 0.709529L6.49751 4.45787C3.61212 6.394 1.50732 9.29218 0.558074 12.6361C-0.391172 15.9801 -0.123221 19.5526 1.31419 22.7174L3.48893 27.5013Z" fill="#263a8a"/>
</svg>
