<svg width="38" height="22" viewBox="0 0 38 22" fill="none" xmlns="http://www.w3.org/2000/svg">
<path d="M36.5877 0.82353C36.0602 0.296268 35.345 6.86646e-05 34.5992 6.86646e-05C33.8535 6.86646e-05 33.1382 0.296268 32.6108 0.82353L18.6889 14.7454L4.76704 0.82353C4.2366 0.311211 3.52616 0.0277271 2.78873 0.0341358C2.0513 0.0405426 1.34589 0.33633 0.824429 0.85779C0.302967 1.37925 0.00718307 2.08466 0.000774384 2.82209C-0.00563049 3.55952 0.277851 4.26996 0.790173 4.80041L16.7005 20.7107C17.2279 21.238 17.9431 21.5342 18.6889 21.5342C19.4347 21.5342 20.1499 21.238 20.6774 20.7107L36.5877 4.80041C37.1149 4.27298 37.4111 3.55774 37.4111 2.81197C37.4111 2.06619 37.1149 1.35095 36.5877 0.82353Z" fill="white"/>
</svg>
