<svg width="50" height="50" viewBox="0 0 50 50" fill="none" xmlns="http://www.w3.org/2000/svg">
<g id="ph:tiktok-logo-thin">
<path id="Vector" d="M43.6923 15.7692C41.0411 15.7662 38.4993 14.7116 36.6246 12.8369C34.7499 10.9622 33.6954 8.42046 33.6923 5.76923C33.6923 5.56522 33.6113 5.36956 33.467 5.2253C33.3227 5.08104 33.1271 5 32.9231 5H25.2308C25.0268 5 24.8311 5.08104 24.6868 5.2253C24.5426 5.36956 24.4615 5.56522 24.4615 5.76923V31.1538C24.4614 31.9798 24.2397 32.7907 23.8194 33.5017C23.3991 34.2128 22.7957 34.798 22.0721 35.1964C21.3485 35.5947 20.5313 35.7916 19.7057 35.7665C18.8801 35.7414 18.0764 35.4951 17.3784 35.0535C16.6804 34.6118 16.1137 33.991 15.7374 33.2556C15.3612 32.5203 15.1891 31.6975 15.2393 30.8731C15.2894 30.0486 15.5599 29.2527 16.0225 28.5684C16.4851 27.8841 17.1229 27.3365 17.8692 26.9827C18.0007 26.9201 18.1117 26.8214 18.1894 26.6982C18.267 26.5749 18.308 26.4322 18.3077 26.2865V18.0769C18.3077 17.9645 18.2831 17.8534 18.2356 17.7515C18.1881 17.6496 18.1188 17.5593 18.0326 17.4871C17.9465 17.4149 17.8455 17.3624 17.7369 17.3334C17.6282 17.3044 17.5146 17.2996 17.4038 17.3192C10.9019 18.4769 6 24.4231 6 31.1538C6 34.8261 7.45879 38.3479 10.0554 40.9446C12.6521 43.5412 16.1739 45 19.8462 45C23.5184 45 27.0402 43.5412 29.6369 40.9446C32.2335 38.3479 33.6923 34.8261 33.6923 31.1538V22.2C36.7028 24.0395 40.1643 25.0087 43.6923 25C43.8963 25 44.092 24.919 44.2362 24.7747C44.3805 24.6304 44.4615 24.4348 44.4615 24.2308V16.5385C44.4615 16.3344 44.3805 16.1388 44.2362 15.9945C44.092 15.8503 43.8963 15.7692 43.6923 15.7692ZM42.9231 23.4462C39.4848 23.3043 36.164 22.1555 33.3731 20.1423C33.258 20.0593 33.1222 20.0097 32.9807 19.9991C32.8392 19.9885 32.6975 20.0172 32.5713 20.0821C32.4451 20.147 32.3393 20.2455 32.2657 20.3668C32.192 20.488 32.1533 20.6273 32.1538 20.7692V31.1538C32.1538 34.418 30.8571 37.5486 28.549 39.8567C26.2409 42.1648 23.1104 43.4615 19.8462 43.4615C16.582 43.4615 13.4514 42.1648 11.1433 39.8567C8.83516 37.5486 7.53846 34.418 7.53846 31.1538C7.53846 25.4769 11.4462 20.425 16.7692 19.0385V25.8288C15.8336 26.3691 15.0566 27.1461 14.5165 28.0818C13.9764 29.0175 13.6921 30.0789 13.6923 31.1593C13.6925 32.2397 13.9771 33.3011 14.5176 34.2366C15.058 35.1721 15.8353 35.9488 16.7711 36.4887C17.707 37.0286 18.7685 37.3126 19.8489 37.3121C20.9293 37.3116 21.9906 37.0267 22.9259 36.486C23.8613 35.9453 24.6378 35.1678 25.1775 34.2318C25.7171 33.2958 26.0008 32.2343 26 31.1538V6.53846H32.1788C32.3694 9.32522 33.5625 11.9487 35.5377 13.9239C37.5128 15.899 40.1363 17.0922 42.9231 17.2827V23.4462Z" fill="white" stroke="white"/>
</g>
</svg>
