<svg width="50" height="50" viewBox="0 0 50 50" fill="none" xmlns="http://www.w3.org/2000/svg">
<g id="openmoji:instagram">
<g id="Group 1">
<path id="Vector" d="M34.2235 5H15.7765C9.82425 5 5 9.82511 5 15.7774V34.2226C5 40.1749 9.82511 45 15.7774 45H34.2226C40.1749 45 45 40.1749 45 34.2226V15.7774C45 9.82511 40.1757 5 34.2235 5Z" stroke="white" stroke-width="2.39" stroke-miterlimit="10"/>
<path id="Vector_2" d="M25.0001 34.4737C30.2322 34.4737 34.4737 30.2322 34.4737 25.0001C34.4737 19.7679 30.2322 15.5264 25.0001 15.5264C19.7679 15.5264 15.5264 19.7679 15.5264 25.0001C15.5264 30.2322 19.7679 34.4737 25.0001 34.4737Z" stroke="white" stroke-width="2.39" stroke-miterlimit="10"/>
<path id="Vector_3" d="M36.0739 14.6418C37.0505 14.6418 37.8422 13.8501 37.8422 12.8735C37.8422 11.8969 37.0505 11.1052 36.0739 11.1052C35.0973 11.1052 34.3056 11.8969 34.3056 12.8735C34.3056 13.8501 35.0973 14.6418 36.0739 14.6418Z" fill="white"/>
</g>
</g>
</svg>
