<svg width="50" height="50" viewBox="0 0 50 50" fill="none" xmlns="http://www.w3.org/2000/svg">
<g id="uit:facebook-f">
<path id="Vector" d="M35.5036 5.29737C33.5822 5.09355 31.6512 4.99437 29.7191 5.00025C23.3137 5.00025 19.333 9.08003 19.333 15.6473V20.1061H13.9523C13.6998 20.1061 13.4575 20.2064 13.2789 20.385C13.1003 20.5636 13 20.8059 13 21.0584V28.3914C13 28.6439 13.1003 28.8862 13.2789 29.0648C13.4575 29.2434 13.6998 29.3437 13.9523 29.3437H19.333V44.0477C19.333 44.3002 19.4333 44.5425 19.6119 44.7211C19.7905 44.8997 20.0327 45 20.2853 45H27.8621C28.1146 45 28.3569 44.8997 28.5355 44.7211C28.7141 44.5425 28.8144 44.3002 28.8144 44.0477V29.3437H34.1779C34.4091 29.3438 34.6325 29.2598 34.8063 29.1074C34.9801 28.9549 35.0926 28.7444 35.1226 28.5152L36.0692 21.1822C36.0869 21.0478 36.0756 20.9112 36.0362 20.7815C35.9967 20.6518 35.9301 20.532 35.8407 20.4302C35.7512 20.3283 35.6411 20.2467 35.5176 20.1908C35.3941 20.1349 35.2601 20.106 35.1245 20.1061H28.8144V16.3749C28.8144 14.5274 29.1858 13.756 31.4961 13.756H35.3797C35.6323 13.756 35.8745 13.6556 36.0531 13.477C36.2317 13.2984 36.3321 13.0562 36.3321 12.8036V6.24208C36.3322 6.01088 36.2482 5.78752 36.0957 5.61369C35.9433 5.43986 35.7328 5.32743 35.5036 5.29737ZM34.4274 11.8494L31.4942 11.8513C27.3859 11.8513 26.9097 14.434 26.9097 16.3749V21.0603C26.9097 21.3126 27.0098 21.5545 27.188 21.7331C27.3662 21.9116 27.6079 22.0122 27.8602 22.0127H34.0427L33.3399 27.4409H27.8621C27.6095 27.4409 27.3673 27.5413 27.1887 27.7199C27.0101 27.8985 26.9097 28.1407 26.9097 28.3933V43.0934H21.2377V28.3933C21.2377 28.1407 21.1373 27.8985 20.9587 27.7199C20.7801 27.5413 20.5379 27.4409 20.2853 27.4409H14.9066V22.0127H20.2853C20.5379 22.0127 20.7801 21.9123 20.9587 21.7337C21.1373 21.5551 21.2377 21.3129 21.2377 21.0603V15.6473C21.2377 10.1733 24.4089 6.90491 29.7191 6.90491C31.6409 6.90491 33.376 7.00966 34.4274 7.10109V11.8494Z" fill="white"/>
</g>
</svg>
