<svg width="50" height="50" viewBox="0 0 50 50" fill="none" xmlns="http://www.w3.org/2000/svg">
<g id="uit:linkedin-alt">
<path id="Vector" d="M14.8191 19.0082H6.82161C6.55648 19.0082 6.30221 19.1135 6.11473 19.301C5.92725 19.4885 5.82193 19.7428 5.82193 20.0079V44.0003C5.82193 44.2654 5.92725 44.5197 6.11473 44.7072C6.30221 44.8947 6.55648 45 6.82161 45H14.8191C15.0842 45 15.3385 44.8947 15.526 44.7072C15.7134 44.5197 15.8188 44.2654 15.8188 44.0003V20.0079C15.8188 19.7428 15.7134 19.4885 15.526 19.301C15.3385 19.1135 15.0842 19.0082 14.8191 19.0082ZM13.8194 43.0006H7.8213V21.0076H13.8194V43.0006ZM35.8125 19.0082C33.6431 19.0082 31.5338 19.724 29.8144 21.0456V20.0079C29.8144 19.7428 29.709 19.4885 29.5215 19.301C29.3341 19.1135 29.0798 19.0082 28.8147 19.0082H20.8172C20.5521 19.0082 20.2978 19.1135 20.1103 19.301C19.9228 19.4885 19.8175 19.7428 19.8175 20.0079V44.0003C19.8175 44.2654 19.9228 44.5197 20.1103 44.7072C20.2978 44.8947 20.5521 45 20.8172 45H28.8147C29.0798 45 29.3341 44.8947 29.5215 44.7072C29.709 44.5197 29.8144 44.2654 29.8144 44.0003V33.0038C29.8144 32.2084 30.1303 31.4456 30.6928 30.8831C31.2552 30.3207 32.018 30.0047 32.8134 30.0047C33.6088 30.0047 34.3716 30.3207 34.9341 30.8831C35.4965 31.4456 35.8125 32.2084 35.8125 33.0038V44.0003C35.8125 44.2654 35.9178 44.5197 36.1053 44.7072C36.2927 44.8947 36.547 45 36.8121 45H44.8096C45.0747 45 45.329 44.8947 45.5165 44.7072C45.704 44.5197 45.8093 44.2654 45.8093 44.0003V29.0051C45.8061 26.3547 44.7519 23.8138 42.8778 21.9397C41.0037 20.0656 38.4628 19.0114 35.8125 19.0082ZM43.8099 43.0006H37.8118V33.0038C37.8118 31.6781 37.2852 30.4068 36.3478 29.4694C35.4104 28.532 34.1391 28.0054 32.8134 28.0054C31.4877 28.0054 30.2164 28.532 29.279 29.4694C28.3416 30.4068 27.815 31.6781 27.815 33.0038V43.0006H21.8169V21.0076H27.815V23.4128C27.8149 23.6199 27.8792 23.8218 27.9988 23.9908C28.1185 24.1598 28.2877 24.2874 28.483 24.3561C28.6783 24.4248 28.8902 24.4311 29.0892 24.3743C29.2883 24.3174 29.4649 24.2001 29.5944 24.0386C30.6211 22.7372 32.0284 21.7886 33.62 21.3251C35.2116 20.8616 36.9081 20.9064 38.473 21.4531C40.0379 21.9999 41.3932 23.0213 42.3499 24.3751C43.3066 25.7288 43.817 27.3474 43.8099 29.0051V43.0006ZM11.5561 5.01664C11.3212 5.00008 11.0854 4.99874 10.8503 5.01264C10.1021 4.96173 9.3514 5.06499 8.64471 5.31602C7.93801 5.56705 7.29038 5.96052 6.74194 6.47203C6.1935 6.98355 5.75593 7.60222 5.45632 8.28974C5.15672 8.97725 5.00147 9.71896 5.00019 10.4689C4.99398 11.211 5.14029 11.9465 5.43006 12.6298C5.71982 13.313 6.14686 13.9294 6.68468 14.4408C7.22251 14.9522 7.85966 15.3477 8.55663 15.6027C9.25359 15.8577 9.99551 15.9668 10.7364 15.9232H10.7924C11.5085 15.9733 12.2275 15.8819 12.9083 15.6542C13.5891 15.4265 14.2184 15.0669 14.7603 14.596C15.3021 14.1251 15.7459 13.552 16.0663 12.9096C16.3867 12.2672 16.5774 11.5679 16.6275 10.8518C16.6777 10.1357 16.5863 9.41666 16.3585 8.73585C16.1308 8.05503 15.7712 7.42574 15.3003 6.88389C14.8294 6.34205 14.2564 5.89827 13.6139 5.57788C12.9715 5.2575 12.2723 5.06679 11.5561 5.01664ZM11.4861 13.9298C11.2553 13.9508 11.0229 13.9488 10.7924 13.9238H10.7364C10.2552 13.96 9.77174 13.8954 9.3169 13.7343C8.86207 13.5731 8.44583 13.3188 8.09478 12.9878C7.74372 12.6567 7.46556 12.256 7.27805 11.8114C7.09054 11.3668 6.99781 10.8879 7.00576 10.4055C7.01372 9.92298 7.12219 9.44746 7.32426 9.00925C7.52632 8.57105 7.81754 8.17979 8.17932 7.86047C8.5411 7.54114 8.96549 7.30076 9.42539 7.15467C9.88529 7.00858 10.3706 6.95999 10.8503 7.01201C11.7677 6.92769 12.681 7.21125 13.3893 7.80031C14.0976 8.38936 14.5428 9.23565 14.6271 10.153C14.7115 11.0704 14.4279 11.9837 13.8388 12.6919C13.2498 13.4002 12.4035 13.8455 11.4861 13.9298Z" fill="white"/>
</g>
</svg>
